<svg width="24" height="24" viewBox="0 0 24 24" fill="none" xmlns="http://www.w3.org/2000/svg">
<path d="M12 0C5.37 0 0 5.20315 0 11.9936C0 17.4322 3.23 22.3588 8 23.9873C8.6 24.0948 9 23.3104 9 22.9878C9 22.6959 9 22.0182 9 20.9889C5.985 21.5573 5.24 20.6807 5 19.9894C4.865 19.636 4.51 18.2824 4 17.9905C3.58 17.76 2.995 17.0063 4 16.991C4.945 16.9756 5.775 17.6217 6 17.9905C7.08 19.8494 8.31 19.3125 9 18.9899C9.105 18.191 9.655 18.2977 10 17.9905C7.33 17.6832 4 16.6947 4 11.9936C4 10.657 5.235 8.85609 6 7.99576C5.88 7.6885 5.34 6.68729 6 4.99735C6 4.99735 6.705 4.41442 9 5.99682C9.96 5.72028 10.98 5.99682 12 5.99682C13.02 5.99682 14.04 5.72028 15 5.99682C17.295 4.39906 18 4.99735 18 4.99735C18.66 6.68729 18.12 7.6885 18 7.99576C18.765 8.85609 20 10.6417 20 11.9936C20 16.7101 16.67 17.6832 14 17.9905C14.435 18.3745 15 18.8372 15 19.9894C15 21.6332 15 22.573 15 22.9878C15 23.3104 15.4 24.1102 16 23.9873C18.3823 23.1638 20.5335 21.0817 22 18.9899C23.4665 16.8981 23.9996 14.5689 24 11.9936C24 5.20315 18.63 0 12 0Z" fill="url(#paint0_linear_221_8)"/>
<defs>
<linearGradient id="paint0_linear_221_8" x1="0" y1="24" x2="24" y2="24" gradientUnits="userSpaceOnUse">
<stop stop-color="#D3758C"/>
<stop offset="1" stop-color="#F4A6B3"/>
</linearGradient>
</defs>
</svg>
