<svg width="360" height="320" viewBox="0 0 360 320" fill="none" xmlns="http://www.w3.org/2000/svg">
<g clip-path="url(#clip0_250_2)">
<path d="M134.533 242.774L77.0014 247.314L76.3848 247.363V29.1543C76.5903 29.027 76.7958 28.8997 77.0014 28.7723C88.9915 21.3175 101.962 15.1932 115.624 10.5356L118.563 46.5772L118.831 49.8768L121.74 85.6194L122.637 96.6145L134.427 241.5L134.533 242.774Z" fill="#D6D6D6"/>
<path d="M276.808 25.0907C277.219 25.3232 277.63 25.5557 278.041 25.7993V247.363L276.808 247.264L219.899 242.774L220.005 241.5L231.795 96.6146L232.692 85.6194L235.601 49.8768L235.868 46.5772L238.952 8.78064C252.247 12.8772 264.953 18.3516 276.808 25.0907V25.0907Z" fill="#D6D6D6"/>
<path d="M276.808 25.0907V250.386C276.808 254.71 273.457 258.226 269.334 258.226H84.4755C81.0623 258.226 78.1661 255.812 77.2879 252.518C77.0962 251.82 77 251.104 77.0014 250.386V28.7724C76.7959 28.8997 76.5904 29.0271 76.3848 29.1544C75.3447 29.8021 74.317 30.4665 73.2955 31.1364V250.386C73.2404 253.67 74.6201 256.846 77.1447 259.244C78.4685 260.477 80.1429 261.369 81.9904 261.824C82.8003 262.02 83.6361 262.119 84.4755 262.118H269.334C270.175 262.118 271.013 262.02 271.825 261.824C276.795 260.634 280.514 255.961 280.514 250.386V27.2554C279.698 26.7627 278.869 26.2755 278.041 25.7993C277.63 25.5557 277.219 25.3232 276.808 25.0907Z" fill="#D6D6D6"/>
<path d="M278.662 46.5793H75.1484V49.8785H278.662V46.5793Z" fill="#D6D6D6"/>
<path d="M137.479 4.49545C138.712 4.22417 139.945 3.96951 141.191 3.73145V93.3148H137.479V4.49545Z" fill="#D6D6D6"/>
<path d="M212.618 2.61865C213.857 2.8235 215.097 3.03388 216.33 3.26087V93.3148H212.618V2.61865Z" fill="#D6D6D6"/>
<path d="M301.858 241.5H58.1357C53.7053 241.5 49.4565 243.065 46.3238 245.849C43.1911 248.634 41.4312 252.411 41.4312 256.349C41.4312 260.287 43.1911 264.064 46.3238 266.848C49.4565 269.633 53.7053 271.197 58.1357 271.197H301.858C304.23 271.198 306.576 270.748 308.737 269.878C310.898 269.008 312.825 267.739 314.39 266.154C315.098 265.437 315.728 264.662 316.271 263.839C316.691 263.209 317.055 262.55 317.361 261.869C318.378 259.616 318.758 257.176 318.468 254.762C318.178 252.348 317.226 250.035 315.696 248.024C314.165 246.014 312.104 244.368 309.691 243.23C307.279 242.093 304.589 241.499 301.858 241.5V241.5Z" fill="#C4C4C4"/>
<path d="M278.662 85.6188H76.3857V96.6158H278.662V85.6188Z" fill="#D6D6D6"/>
<path d="M175.668 82.3196H179.38C180.273 82.3196 181.158 82.4761 181.984 82.78C182.809 83.084 183.559 83.5295 184.191 84.0912C184.823 84.6528 185.324 85.3196 185.666 86.0534C186.008 86.7872 186.184 87.5737 186.184 88.368V88.368H168.864C168.864 86.7639 169.581 85.2255 170.857 84.0912C172.133 82.9569 173.864 82.3196 175.668 82.3196H175.668Z" fill="#D6D6D6"/>
<path d="M317.591 263.164C312.18 268.863 306.328 274.218 300.077 279.192H59.9231C53.672 274.218 47.8197 268.863 42.4089 263.164H317.591Z" fill="#A1A1A1"/>
<path d="M200.105 207.651H159.671C159.453 207.649 159.236 207.679 159.029 207.74C158.59 207.86 158.206 208.103 157.934 208.432C157.661 208.761 157.515 209.158 157.516 209.567V266.347H202.266V209.567C202.266 209.315 202.21 209.065 202.101 208.833C201.992 208.6 201.833 208.389 201.632 208.211C201.432 208.033 201.194 207.892 200.931 207.796C200.669 207.7 200.389 207.651 200.105 207.651ZM184.802 235.665C184.804 236.586 184.462 237.482 183.83 238.212C183.228 238.92 182.39 239.443 181.436 239.706C180.481 239.969 179.458 239.96 178.51 239.678C177.562 239.397 176.738 238.858 176.152 238.138C175.567 237.418 175.251 236.553 175.248 235.665V229.077C175.259 227.957 175.768 226.887 176.663 226.1C177.557 225.312 178.766 224.87 180.025 224.87C181.284 224.87 182.493 225.312 183.387 226.1C184.282 226.887 184.79 227.957 184.802 229.077V235.665Z" fill="#2F2E41"/>
<path d="M157.378 264.531V270.007C157.378 270.291 157.505 270.563 157.73 270.764C157.955 270.966 158.261 271.08 158.58 271.081H201.201C201.52 271.079 201.825 270.964 202.051 270.763C202.276 270.562 202.402 270.291 202.403 270.007V264.531H157.378Z" fill="#3F3D56"/>
<path d="M267.06 119.042H94.2227C92.7377 119.044 91.3139 119.569 90.2633 120.502C89.2126 121.434 88.6207 122.699 88.6172 124.019V227.693C88.6184 229.014 89.2093 230.281 90.2603 231.215C91.3113 232.149 92.7364 232.674 94.2227 232.675H267.06C268.546 232.674 269.971 232.149 271.022 231.215C272.073 230.281 272.664 229.014 272.666 227.693V124.019C272.662 122.699 272.07 121.434 271.019 120.502C269.969 119.569 268.545 119.044 267.06 119.042V119.042Z" fill="#474747"/>
<path d="M265.615 122.641H95.6616C94.8665 122.642 94.1046 122.924 93.5429 123.424C92.9813 123.925 92.6658 124.603 92.6658 125.309V226.414C92.6671 227.12 92.9832 227.796 93.5447 228.295C94.1063 228.795 94.8675 229.076 95.6616 229.077H265.615C266.409 229.076 267.171 228.795 267.732 228.295C268.294 227.796 268.61 227.12 268.611 226.414V125.309C268.611 124.603 268.296 123.925 267.734 123.424C267.172 122.924 266.41 122.642 265.615 122.641V122.641Z" fill="#242424"/>
<path d="M234.336 270.992L232.767 264.365C232.702 264.095 232.562 263.844 232.359 263.634C232.157 263.424 231.899 263.263 231.608 263.164C231.398 263.091 231.174 263.053 230.948 263.053H132.97C132.744 263.053 132.52 263.091 132.309 263.164C132.019 263.263 131.761 263.424 131.558 263.634C131.356 263.844 131.216 264.095 131.151 264.365L129.581 270.992C129.525 271.233 129.529 271.482 129.594 271.721C129.659 271.96 129.783 272.183 129.957 272.373C130.132 272.564 130.351 272.718 130.601 272.824C130.85 272.93 131.123 272.985 131.4 272.985H232.511C232.789 272.987 233.063 272.932 233.313 272.826C233.564 272.719 233.783 272.564 233.956 272.371C234.131 272.181 234.256 271.958 234.321 271.72C234.387 271.481 234.392 271.233 234.336 270.992V270.992Z" fill="#2F2E41"/>
<path d="M136.498 264.247H133.992C133.824 264.247 133.688 264.368 133.688 264.517V265.637C133.688 265.787 133.824 265.908 133.992 265.908H136.498C136.666 265.908 136.802 265.787 136.802 265.637V264.517C136.802 264.368 136.666 264.247 136.498 264.247Z" fill="#3F3D56"/>
<path d="M142.726 264.247H140.22C140.052 264.247 139.916 264.368 139.916 264.517V265.637C139.916 265.787 140.052 265.908 140.22 265.908H142.726C142.894 265.908 143.03 265.787 143.03 265.637V264.517C143.03 264.368 142.894 264.247 142.726 264.247Z" fill="#3F3D56"/>
<path d="M148.955 264.247H146.449C146.281 264.247 146.145 264.368 146.145 264.517V265.637C146.145 265.787 146.281 265.908 146.449 265.908H148.955C149.123 265.908 149.259 265.787 149.259 265.637V264.517C149.259 264.368 149.123 264.247 148.955 264.247Z" fill="#3F3D56"/>
<path d="M155.183 264.247H152.677C152.509 264.247 152.373 264.368 152.373 264.517V265.637C152.373 265.787 152.509 265.908 152.677 265.908H155.183C155.351 265.908 155.487 265.787 155.487 265.637V264.517C155.487 264.368 155.351 264.247 155.183 264.247Z" fill="#3F3D56"/>
<path d="M161.411 264.247H158.905C158.737 264.247 158.601 264.368 158.601 264.517V265.637C158.601 265.787 158.737 265.908 158.905 265.908H161.411C161.579 265.908 161.715 265.787 161.715 265.637V264.517C161.715 264.368 161.579 264.247 161.411 264.247Z" fill="#3F3D56"/>
<path d="M167.64 264.247H165.134C164.966 264.247 164.83 264.368 164.83 264.517V265.637C164.83 265.787 164.966 265.908 165.134 265.908H167.64C167.808 265.908 167.944 265.787 167.944 265.637V264.517C167.944 264.368 167.808 264.247 167.64 264.247Z" fill="#3F3D56"/>
<path d="M173.868 264.247H171.362C171.194 264.247 171.058 264.368 171.058 264.517V265.637C171.058 265.787 171.194 265.908 171.362 265.908H173.868C174.036 265.908 174.172 265.787 174.172 265.637V264.517C174.172 264.368 174.036 264.247 173.868 264.247Z" fill="#3F3D56"/>
<path d="M180.096 264.247H177.59C177.423 264.247 177.286 264.368 177.286 264.517V265.637C177.286 265.787 177.423 265.908 177.59 265.908H180.096C180.264 265.908 180.401 265.787 180.401 265.637V264.517C180.401 264.368 180.264 264.247 180.096 264.247Z" fill="#3F3D56"/>
<path d="M186.325 264.247H183.819C183.651 264.247 183.515 264.368 183.515 264.517V265.637C183.515 265.787 183.651 265.908 183.819 265.908H186.325C186.493 265.908 186.629 265.787 186.629 265.637V264.517C186.629 264.368 186.493 264.247 186.325 264.247Z" fill="#3F3D56"/>
<path d="M192.553 264.247H190.047C189.879 264.247 189.743 264.368 189.743 264.517V265.637C189.743 265.787 189.879 265.908 190.047 265.908H192.553C192.721 265.908 192.857 265.787 192.857 265.637V264.517C192.857 264.368 192.721 264.247 192.553 264.247Z" fill="#3F3D56"/>
<path d="M198.782 264.247H196.275C196.108 264.247 195.971 264.368 195.971 264.517V265.637C195.971 265.787 196.108 265.908 196.275 265.908H198.782C198.949 265.908 199.086 265.787 199.086 265.637V264.517C199.086 264.368 198.949 264.247 198.782 264.247Z" fill="#3F3D56"/>
<path d="M205.01 264.247H202.504C202.336 264.247 202.2 264.368 202.2 264.517V265.637C202.2 265.787 202.336 265.908 202.504 265.908H205.01C205.178 265.908 205.314 265.787 205.314 265.637V264.517C205.314 264.368 205.178 264.247 205.01 264.247Z" fill="#3F3D56"/>
<path d="M211.238 264.247H208.732C208.564 264.247 208.428 264.368 208.428 264.517V265.637C208.428 265.787 208.564 265.908 208.732 265.908H211.238C211.406 265.908 211.542 265.787 211.542 265.637V264.517C211.542 264.368 211.406 264.247 211.238 264.247Z" fill="#3F3D56"/>
<path d="M217.467 264.247H214.961C214.793 264.247 214.656 264.368 214.656 264.517V265.637C214.656 265.787 214.793 265.908 214.961 265.908H217.467C217.635 265.908 217.771 265.787 217.771 265.637V264.517C217.771 264.368 217.635 264.247 217.467 264.247Z" fill="#3F3D56"/>
<path d="M223.695 264.247H221.189C221.021 264.247 220.885 264.368 220.885 264.517V265.637C220.885 265.787 221.021 265.908 221.189 265.908H223.695C223.863 265.908 223.999 265.787 223.999 265.637V264.517C223.999 264.368 223.863 264.247 223.695 264.247Z" fill="#3F3D56"/>
<path d="M229.923 264.247H227.417C227.249 264.247 227.113 264.368 227.113 264.517V265.637C227.113 265.787 227.249 265.908 227.417 265.908H229.923C230.091 265.908 230.227 265.787 230.227 265.637V264.517C230.227 264.368 230.091 264.247 229.923 264.247Z" fill="#3F3D56"/>
<path d="M136.424 267.015H133.918C133.75 267.015 133.614 267.136 133.614 267.285V268.406C133.614 268.555 133.75 268.676 133.918 268.676H136.424C136.592 268.676 136.728 268.555 136.728 268.406V267.285C136.728 267.136 136.592 267.015 136.424 267.015Z" fill="#3F3D56"/>
<path d="M142.653 267.015H140.147C139.979 267.015 139.843 267.136 139.843 267.285V268.406C139.843 268.555 139.979 268.676 140.147 268.676H142.653C142.821 268.676 142.957 268.555 142.957 268.406V267.285C142.957 267.136 142.821 267.015 142.653 267.015Z" fill="#3F3D56"/>
<path d="M148.881 267.015H146.375C146.207 267.015 146.071 267.136 146.071 267.285V268.406C146.071 268.555 146.207 268.676 146.375 268.676H148.881C149.049 268.676 149.185 268.555 149.185 268.406V267.285C149.185 267.136 149.049 267.015 148.881 267.015Z" fill="#3F3D56"/>
<path d="M155.109 267.015H152.603C152.435 267.015 152.299 267.136 152.299 267.285V268.406C152.299 268.555 152.435 268.676 152.603 268.676H155.109C155.277 268.676 155.413 268.555 155.413 268.406V267.285C155.413 267.136 155.277 267.015 155.109 267.015Z" fill="#3F3D56"/>
<path d="M161.338 267.015H158.832C158.664 267.015 158.528 267.136 158.528 267.285V268.406C158.528 268.555 158.664 268.676 158.832 268.676H161.338C161.506 268.676 161.642 268.555 161.642 268.406V267.285C161.642 267.136 161.506 267.015 161.338 267.015Z" fill="#3F3D56"/>
<path d="M167.566 267.015H165.06C164.892 267.015 164.756 267.136 164.756 267.285V268.406C164.756 268.555 164.892 268.676 165.06 268.676H167.566C167.734 268.676 167.87 268.555 167.87 268.406V267.285C167.87 267.136 167.734 267.015 167.566 267.015Z" fill="#3F3D56"/>
<path d="M173.794 267.015H171.288C171.121 267.015 170.984 267.136 170.984 267.285V268.406C170.984 268.555 171.121 268.676 171.288 268.676H173.794C173.962 268.676 174.099 268.555 174.099 268.406V267.285C174.099 267.136 173.962 267.015 173.794 267.015Z" fill="#3F3D56"/>
<path d="M180.023 267.015H177.517C177.349 267.015 177.213 267.136 177.213 267.285V268.406C177.213 268.555 177.349 268.676 177.517 268.676H180.023C180.191 268.676 180.327 268.555 180.327 268.406V267.285C180.327 267.136 180.191 267.015 180.023 267.015Z" fill="#3F3D56"/>
<path d="M186.251 267.015H183.745C183.577 267.015 183.441 267.136 183.441 267.285V268.406C183.441 268.555 183.577 268.676 183.745 268.676H186.251C186.419 268.676 186.555 268.555 186.555 268.406V267.285C186.555 267.136 186.419 267.015 186.251 267.015Z" fill="#3F3D56"/>
<path d="M192.48 267.015H189.973C189.806 267.015 189.669 267.136 189.669 267.285V268.406C189.669 268.555 189.806 268.676 189.973 268.676H192.48C192.647 268.676 192.784 268.555 192.784 268.406V267.285C192.784 267.136 192.647 267.015 192.48 267.015Z" fill="#3F3D56"/>
<path d="M198.708 267.015H196.202C196.034 267.015 195.898 267.136 195.898 267.285V268.406C195.898 268.555 196.034 268.676 196.202 268.676H198.708C198.876 268.676 199.012 268.555 199.012 268.406V267.285C199.012 267.136 198.876 267.015 198.708 267.015Z" fill="#3F3D56"/>
<path d="M204.936 267.015H202.43C202.262 267.015 202.126 267.136 202.126 267.285V268.406C202.126 268.555 202.262 268.676 202.43 268.676H204.936C205.104 268.676 205.24 268.555 205.24 268.406V267.285C205.24 267.136 205.104 267.015 204.936 267.015Z" fill="#3F3D56"/>
<path d="M211.165 267.015H208.659C208.491 267.015 208.354 267.136 208.354 267.285V268.406C208.354 268.555 208.491 268.676 208.659 268.676H211.165C211.333 268.676 211.469 268.555 211.469 268.406V267.285C211.469 267.136 211.333 267.015 211.165 267.015Z" fill="#3F3D56"/>
<path d="M217.393 267.015H214.887C214.719 267.015 214.583 267.136 214.583 267.285V268.406C214.583 268.555 214.719 268.676 214.887 268.676H217.393C217.561 268.676 217.697 268.555 217.697 268.406V267.285C217.697 267.136 217.561 267.015 217.393 267.015Z" fill="#3F3D56"/>
<path d="M223.621 267.015H221.115C220.947 267.015 220.811 267.136 220.811 267.285V268.406C220.811 268.555 220.947 268.676 221.115 268.676H223.621C223.789 268.676 223.925 268.555 223.925 268.406V267.285C223.925 267.136 223.789 267.015 223.621 267.015Z" fill="#3F3D56"/>
<path d="M229.85 267.015H227.344C227.176 267.015 227.04 267.136 227.04 267.285V268.406C227.04 268.555 227.176 268.676 227.344 268.676H229.85C230.018 268.676 230.154 268.555 230.154 268.406V267.285C230.154 267.136 230.018 267.015 229.85 267.015Z" fill="#3F3D56"/>
<path d="M188.12 270.337H163.814C163.646 270.337 163.51 270.458 163.51 270.607V271.727C163.51 271.877 163.646 271.998 163.814 271.998H188.12C188.288 271.998 188.424 271.877 188.424 271.727V270.607C188.424 270.458 188.288 270.337 188.12 270.337Z" fill="#3F3D56"/>
<path d="M257.075 136.568H98.0501C97.8847 136.565 97.7274 136.505 97.6118 136.399C97.4961 136.294 97.4314 136.153 97.4314 136.006C97.4314 135.859 97.4961 135.718 97.6118 135.613C97.7274 135.508 97.8847 135.447 98.0501 135.444H257.075C257.24 135.447 257.398 135.508 257.513 135.613C257.629 135.718 257.694 135.859 257.694 136.006C257.694 136.153 257.629 136.294 257.513 136.399C257.398 136.505 257.24 136.565 257.075 136.568V136.568Z" fill="url(#paint0_linear_250_2)"/>
<path d="M108.875 132.574C110.922 132.574 112.581 131.066 112.581 129.206C112.581 127.346 110.922 125.839 108.875 125.839C106.828 125.839 105.169 127.346 105.169 129.206C105.169 131.066 106.828 132.574 108.875 132.574Z" fill="url(#paint1_linear_250_2)"/>
<path d="M121.678 132.574C123.725 132.574 125.384 131.066 125.384 129.206C125.384 127.346 123.725 125.839 121.678 125.839C119.631 125.839 117.972 127.346 117.972 129.206C117.972 131.066 119.631 132.574 121.678 132.574Z" fill="url(#paint2_linear_250_2)"/>
<path d="M134.481 132.574C136.528 132.574 138.187 131.066 138.187 129.206C138.187 127.346 136.528 125.839 134.481 125.839C132.434 125.839 130.775 127.346 130.775 129.206C130.775 131.066 132.434 132.574 134.481 132.574Z" fill="url(#paint3_linear_250_2)"/>
<path d="M249.365 126.671H240.272C240.092 126.675 239.921 126.741 239.796 126.855C239.67 126.97 239.6 127.123 239.6 127.283C239.6 127.443 239.67 127.596 239.796 127.711C239.921 127.825 240.092 127.891 240.272 127.895H249.365C249.546 127.893 249.719 127.827 249.846 127.713C249.973 127.598 250.044 127.444 250.044 127.283C250.044 127.122 249.973 126.968 249.846 126.853C249.719 126.739 249.546 126.674 249.365 126.671Z" fill="url(#paint4_linear_250_2)"/>
<path d="M249.365 128.969H240.272C240.092 128.972 239.921 129.038 239.795 129.153C239.669 129.267 239.599 129.421 239.599 129.581C239.599 129.741 239.669 129.894 239.795 130.008C239.921 130.123 240.092 130.189 240.272 130.192H249.365C249.547 130.19 249.72 130.125 249.847 130.011C249.974 129.896 250.045 129.742 250.045 129.581C250.045 129.42 249.974 129.265 249.847 129.151C249.72 129.036 249.547 128.971 249.365 128.969V128.969Z" fill="url(#paint5_linear_250_2)"/>
<path d="M249.365 131.266H240.272C240.092 131.27 239.921 131.336 239.796 131.451C239.67 131.565 239.6 131.718 239.6 131.878C239.6 132.038 239.67 132.192 239.796 132.306C239.921 132.42 240.092 132.486 240.272 132.49H249.365C249.546 132.488 249.719 132.422 249.846 132.308C249.973 132.193 250.044 132.039 250.044 131.878C250.044 131.717 249.973 131.563 249.846 131.449C249.719 131.334 249.546 131.269 249.365 131.266V131.266Z" fill="url(#paint6_linear_250_2)"/>
<path d="M111.762 149.632H108.495C107.504 149.632 106.701 150.346 106.701 151.227C106.701 152.107 107.504 152.821 108.495 152.821H111.762C112.753 152.821 113.556 152.107 113.556 151.227C113.556 150.346 112.753 149.632 111.762 149.632Z" fill="#F5F5F5"/>
<path d="M149.132 149.632H145.865C144.874 149.632 144.071 150.346 144.071 151.227C144.071 152.107 144.874 152.821 145.865 152.821H149.132C150.123 152.821 150.926 152.107 150.926 151.227C150.926 150.346 150.123 149.632 149.132 149.632Z" fill="#F5F5F5"/>
<path d="M159.721 149.632H156.453C155.463 149.632 154.659 150.346 154.659 151.227C154.659 152.107 155.463 152.821 156.453 152.821H159.721C160.711 152.821 161.514 152.107 161.514 151.227C161.514 150.346 160.711 149.632 159.721 149.632Z" fill="#E6E6E6"/>
<path d="M138.968 149.366H118.659C117.669 149.366 116.866 150.08 116.866 150.961C116.866 151.841 117.669 152.555 118.659 152.555H138.968C139.958 152.555 140.761 151.841 140.761 150.961C140.761 150.08 139.958 149.366 138.968 149.366Z" fill="#F5F5F5"/>
<path d="M188.794 149.366H168.486C167.496 149.366 166.693 150.08 166.693 150.961C166.693 151.841 167.496 152.555 168.486 152.555H188.794C189.785 152.555 190.588 151.841 190.588 150.961C190.588 150.08 189.785 149.366 188.794 149.366Z" fill="#E6E6E6"/>
<path d="M121.728 156.829H118.46C117.469 156.829 116.666 157.543 116.666 158.424C116.666 159.305 117.469 160.018 118.46 160.018H121.728C122.718 160.018 123.521 159.305 123.521 158.424C123.521 157.543 122.718 156.829 121.728 156.829Z" fill="#F5F5F5"/>
<path d="M159.098 156.829H155.83C154.839 156.829 154.036 157.543 154.036 158.424C154.036 159.305 154.839 160.018 155.83 160.018H159.098C160.088 160.018 160.891 159.305 160.891 158.424C160.891 157.543 160.088 156.829 159.098 156.829Z" fill="#E6E6E6"/>
<path d="M169.686 156.829H166.418C165.428 156.829 164.625 157.543 164.625 158.424C164.625 159.305 165.428 160.018 166.418 160.018H169.686C170.677 160.018 171.48 159.305 171.48 158.424C171.48 157.543 170.677 156.829 169.686 156.829Z" fill="#E6E6E6"/>
<path d="M148.933 156.564H128.625C127.634 156.564 126.831 157.278 126.831 158.158C126.831 159.039 127.634 159.753 128.625 159.753H148.933C149.924 159.753 150.727 159.039 150.727 158.158C150.727 157.278 149.924 156.564 148.933 156.564Z" fill="#F5F5F5"/>
<path d="M198.76 156.564H178.452C177.461 156.564 176.658 157.278 176.658 158.158C176.658 159.039 177.461 159.753 178.452 159.753H198.76C199.75 159.753 200.554 159.039 200.554 158.158C200.554 157.278 199.75 156.564 198.76 156.564Z" fill="#E6E6E6"/>
<path d="M131.693 164.027H128.425C127.435 164.027 126.632 164.741 126.632 165.621C126.632 166.502 127.435 167.216 128.425 167.216H131.693C132.684 167.216 133.487 166.502 133.487 165.621C133.487 164.741 132.684 164.027 131.693 164.027Z" fill="#F5F5F5"/>
<path d="M169.063 164.027H165.796C164.805 164.027 164.002 164.741 164.002 165.621C164.002 166.502 164.805 167.216 165.796 167.216H169.063C170.054 167.216 170.857 166.502 170.857 165.621C170.857 164.741 170.054 164.027 169.063 164.027Z" fill="#E6E6E6"/>
<path d="M179.651 164.027H176.384C175.393 164.027 174.59 164.741 174.59 165.621C174.59 166.502 175.393 167.216 176.384 167.216H179.651C180.642 167.216 181.445 166.502 181.445 165.621C181.445 164.741 180.642 164.027 179.651 164.027Z" fill="#E6E6E6"/>
<path d="M158.898 163.761H138.59C137.599 163.761 136.796 164.475 136.796 165.355C136.796 166.236 137.599 166.95 138.59 166.95H158.898C159.889 166.95 160.692 166.236 160.692 165.355C160.692 164.475 159.889 163.761 158.898 163.761Z" fill="#F5F5F5"/>
<path d="M208.725 163.761H188.417C187.427 163.761 186.624 164.475 186.624 165.355C186.624 166.236 187.427 166.95 188.417 166.95H208.725C209.716 166.95 210.519 166.236 210.519 165.355C210.519 164.475 209.716 163.761 208.725 163.761Z" fill="#E6E6E6"/>
<path d="M141.658 171.224H138.391C137.4 171.224 136.597 171.938 136.597 172.818C136.597 173.699 137.4 174.413 138.391 174.413H141.658C142.649 174.413 143.452 173.699 143.452 172.818C143.452 171.938 142.649 171.224 141.658 171.224Z" fill="#F5F5F5"/>
<path d="M179.029 171.224H175.761C174.77 171.224 173.967 171.938 173.967 172.818C173.967 173.699 174.77 174.413 175.761 174.413H179.029C180.019 174.413 180.822 173.699 180.822 172.818C180.822 171.938 180.019 171.224 179.029 171.224Z" fill="#E6E6E6"/>
<path d="M189.617 171.224H186.349C185.358 171.224 184.555 171.938 184.555 172.818C184.555 173.699 185.358 174.413 186.349 174.413H189.617C190.607 174.413 191.41 173.699 191.41 172.818C191.41 171.938 190.607 171.224 189.617 171.224Z" fill="#E6E6E6"/>
<path d="M168.864 170.958H148.555C147.565 170.958 146.762 171.672 146.762 172.553C146.762 173.433 147.565 174.147 148.555 174.147H168.864C169.854 174.147 170.657 173.433 170.657 172.553C170.657 171.672 169.854 170.958 168.864 170.958Z" fill="#F5F5F5"/>
<path d="M149.132 199.843H145.865C144.874 199.843 144.071 200.557 144.071 201.438C144.071 202.318 144.874 203.032 145.865 203.032H149.132C150.123 203.032 150.926 202.318 150.926 201.438C150.926 200.557 150.123 199.843 149.132 199.843Z" fill="#F5F5F5"/>
<path d="M159.721 199.843H156.453C155.463 199.843 154.659 200.557 154.659 201.438C154.659 202.318 155.463 203.032 156.453 203.032H159.721C160.711 203.032 161.514 202.318 161.514 201.438C161.514 200.557 160.711 199.843 159.721 199.843Z" fill="#E6E6E6"/>
<path d="M188.794 200.109H168.486C167.496 200.109 166.693 200.823 166.693 201.703C166.693 202.584 167.496 203.298 168.486 203.298H188.794C189.785 203.298 190.588 202.584 190.588 201.703C190.588 200.823 189.785 200.109 188.794 200.109Z" fill="#E6E6E6"/>
<path d="M111.762 199.843H108.495C107.504 199.843 106.701 200.557 106.701 201.438C106.701 202.318 107.504 203.032 108.495 203.032H111.762C112.753 203.032 113.556 202.318 113.556 201.438C113.556 200.557 112.753 199.843 111.762 199.843Z" fill="#F5F5F5"/>
<path d="M138.968 200.109H118.659C117.669 200.109 116.866 200.823 116.866 201.703C116.866 202.584 117.669 203.298 118.659 203.298H138.968C139.958 203.298 140.761 202.584 140.761 201.703C140.761 200.823 139.958 200.109 138.968 200.109Z" fill="#F5F5F5"/>
<path d="M121.728 192.646H118.46C117.469 192.646 116.666 193.36 116.666 194.24C116.666 195.121 117.469 195.835 118.46 195.835H121.728C122.718 195.835 123.521 195.121 123.521 194.24C123.521 193.36 122.718 192.646 121.728 192.646Z" fill="#F5F5F5"/>
<path d="M159.098 192.646H155.83C154.839 192.646 154.036 193.36 154.036 194.24C154.036 195.121 154.839 195.835 155.83 195.835H159.098C160.088 195.835 160.891 195.121 160.891 194.24C160.891 193.36 160.088 192.646 159.098 192.646Z" fill="#E6E6E6"/>
<path d="M169.686 192.646H166.418C165.428 192.646 164.625 193.36 164.625 194.24C164.625 195.121 165.428 195.835 166.418 195.835H169.686C170.677 195.835 171.48 195.121 171.48 194.24C171.48 193.36 170.677 192.646 169.686 192.646Z" fill="#F5F5F5"/>
<path d="M148.933 192.912H128.625C127.634 192.912 126.831 193.626 126.831 194.506C126.831 195.387 127.634 196.101 128.625 196.101H148.933C149.924 196.101 150.727 195.387 150.727 194.506C150.727 193.626 149.924 192.912 148.933 192.912Z" fill="#F5F5F5"/>
<path d="M131.693 185.449H128.425C127.435 185.449 126.632 186.163 126.632 187.043C126.632 187.924 127.435 188.638 128.425 188.638H131.693C132.684 188.638 133.487 187.924 133.487 187.043C133.487 186.163 132.684 185.449 131.693 185.449Z" fill="#F5F5F5"/>
<path d="M169.063 185.449H165.796C164.805 185.449 164.002 186.163 164.002 187.043C164.002 187.924 164.805 188.638 165.796 188.638H169.063C170.054 188.638 170.857 187.924 170.857 187.043C170.857 186.163 170.054 185.449 169.063 185.449Z" fill="#E6E6E6"/>
<path d="M179.651 185.449H176.384C175.393 185.449 174.59 186.163 174.59 187.043C174.59 187.924 175.393 188.638 176.384 188.638H179.651C180.642 188.638 181.445 187.924 181.445 187.043C181.445 186.163 180.642 185.449 179.651 185.449Z" fill="#E6E6E6"/>
<path d="M158.898 185.715H138.59C137.599 185.715 136.796 186.428 136.796 187.309C136.796 188.19 137.599 188.903 138.59 188.903H158.898C159.889 188.903 160.692 188.19 160.692 187.309C160.692 186.428 159.889 185.715 158.898 185.715Z" fill="#F5F5F5"/>
<path d="M141.658 178.252H138.391C137.4 178.252 136.597 178.965 136.597 179.846C136.597 180.727 137.4 181.44 138.391 181.44H141.658C142.649 181.44 143.452 180.727 143.452 179.846C143.452 178.965 142.649 178.252 141.658 178.252Z" fill="#F5F5F5"/>
<path d="M179.029 178.252H175.761C174.77 178.252 173.967 178.965 173.967 179.846C173.967 180.727 174.77 181.44 175.761 181.44H179.029C180.019 181.44 180.822 180.727 180.822 179.846C180.822 178.965 180.019 178.252 179.029 178.252Z" fill="#E6E6E6"/>
<path d="M189.617 178.252H186.349C185.358 178.252 184.555 178.965 184.555 179.846C184.555 180.727 185.358 181.44 186.349 181.44H189.617C190.607 181.44 191.41 180.727 191.41 179.846C191.41 178.965 190.607 178.252 189.617 178.252Z" fill="#E6E6E6"/>
<path d="M168.864 178.517H148.555C147.565 178.517 146.762 179.231 146.762 180.112C146.762 180.992 147.565 181.706 148.555 181.706H168.864C169.854 181.706 170.657 180.992 170.657 180.112C170.657 179.231 169.854 178.517 168.864 178.517Z" fill="#F5F5F5"/>
<path d="M258.982 303.817C258.602 303.989 258.216 304.161 257.836 304.327C247.995 308.7 240.123 311.186 229.354 313.91C228.444 304.886 227.566 289.024 226.713 279.192C226.489 276.639 226.264 274.497 226.046 272.985C225.991 272.182 225.807 271.389 225.498 270.633L225.536 272.985L225.629 279.192L226.171 314.685C212.775 317.836 199.015 319.599 185.163 319.939C184.441 319.956 183.731 319.967 183.046 319.978C182.803 319.983 182.566 319.989 182.329 319.989C181.551 319.994 180.779 320 180 320C165.403 320.01 150.859 318.442 136.688 315.333C136.993 306.403 137.298 290.718 137.591 279.192C137.653 276.938 137.709 274.84 137.772 272.985C137.89 269.021 138.015 266.165 138.133 265.207C138.028 265.377 137.946 265.557 137.89 265.744C137.313 268.131 136.92 270.551 136.713 272.985C136.495 274.84 136.277 276.938 136.059 279.192C134.9 291.167 133.692 307.449 132.446 314.353C125.032 312.554 117.756 310.329 110.666 307.693C106.929 306.309 103.258 304.816 99.6541 303.214C100.339 299.228 101.055 294.76 101.79 290.126C102.363 286.533 102.955 282.84 103.559 279.192C104.493 273.556 105.453 268.03 106.424 263.164C107.844 256.055 109.302 250.342 110.747 247.718C112.117 245.226 113.487 242.768 114.814 240.415C115.275 239.59 115.736 238.776 116.184 237.985C116.29 237.797 116.396 237.614 116.502 237.431C117.455 235.765 118.377 234.17 119.255 232.675C120.008 231.397 120.725 230.19 121.404 229.077C123.048 226.375 124.443 224.221 125.477 222.859C129.799 217.031 136.234 212.692 143.714 210.563L143.9 210.519L144.031 210.569L156.768 207.092L158.631 206.583L159.882 206.239L164.292 203.255L166.69 201.633L168.938 200.111L173.336 197.138L200.56 198.627L205.86 209.971L217.732 213.83L217.937 213.747L218.118 213.68L218.305 213.725C225.783 215.856 232.217 220.194 236.541 226.021C237.127 226.801 237.837 227.831 238.64 229.077C239.325 230.134 240.073 231.341 240.882 232.675C242.035 234.574 243.293 236.717 244.626 239.037C244.918 239.546 245.217 240.066 245.516 240.592C246.071 241.567 246.633 242.561 247.204 243.576C248.531 245.929 249.901 248.388 251.271 250.884C252.461 253.049 253.663 257.5 254.846 263.164C255.824 267.87 256.796 273.417 257.736 279.192C258.97 286.677 257.655 295.64 258.77 302.527C258.839 302.965 258.914 303.391 258.982 303.817Z" fill="#F4A6B3"/>
<path d="M180.383 188.083C197.87 188.083 212.046 175.482 212.046 159.938C212.046 144.394 197.87 131.793 180.383 131.793C162.896 131.793 148.72 144.394 148.72 159.938C148.72 175.482 162.896 188.083 180.383 188.083Z" fill="#FFCFBF"/>
<path d="M232.599 122.641C231.973 121.342 231.14 120.13 230.126 119.042C225.318 113.821 216.573 111.524 207.598 117.702C205.87 117.359 204.069 117.451 202.397 117.968C201.608 118.222 200.868 118.585 200.205 119.042C198.846 119.985 197.785 121.225 197.128 122.641C196.776 123.389 196.546 124.177 196.443 124.983C194.224 123.958 191.876 123.172 189.448 122.641C183.491 121.324 177.262 121.324 171.305 122.641C169.396 123.07 167.558 123.718 165.837 124.567C162.922 126.062 161.246 127.95 160.947 130.048C156.743 130.259 152.371 132.224 149.113 135.446C148.746 135.806 148.391 136.183 148.061 136.57C145.321 139.756 143.849 143.661 143.875 147.671V148.374H144.666C146.834 148.372 148.981 148.744 150.988 149.47C152.289 149.934 153.521 150.539 154.657 151.269C155.4 151.738 156.101 152.256 156.756 152.819C158.273 154.125 159.558 155.628 160.567 157.276C163.155 161.442 164.052 166.272 163.109 170.956C162.892 172.041 162.575 173.107 162.162 174.145C161.573 175.626 160.798 177.044 159.851 178.37C159.814 178.419 159.783 178.469 159.745 178.519C159.328 179.111 158.929 179.715 158.556 180.324C158.275 180.778 158.014 181.243 157.771 181.708C157.061 183.002 156.461 184.342 155.977 185.716C155.11 188.147 154.599 190.666 154.457 193.212C154.414 193.888 154.401 194.563 154.426 195.239C154.463 196.98 154.678 198.714 155.068 200.421C155.124 200.653 155.18 200.88 155.236 201.113L155.691 202.879L156.768 207.092L157.515 209.993L158.207 212.684L159.228 211.383C159.577 210.94 160.455 209.578 161.632 207.651C162.411 206.395 163.314 204.894 164.292 203.255C165.656 200.958 167.151 198.395 168.614 195.837C169.206 194.801 169.792 193.772 170.358 192.764C171.43 190.854 172.439 189.01 173.304 187.372C174.102 185.86 174.781 184.52 175.285 183.446C175.441 184.15 175.572 184.864 175.671 185.583C175.783 186.314 175.864 187.056 175.908 187.798C175.92 187.909 175.927 188.025 175.933 188.136L175.958 188.59L175.964 188.723L176.624 188.8C180.432 189.163 184.271 189.188 188.084 188.878H188.091C193.143 188.539 198.099 187.472 202.765 185.716C205.414 184.694 207.889 183.345 210.114 181.708C211.154 180.943 212.124 180.106 213.017 179.206C213.241 178.979 213.459 178.752 213.67 178.519C214.903 177.173 215.958 175.705 216.816 174.145C217.39 173.116 217.877 172.05 218.273 170.956C220.665 164.518 220.528 156.485 217.862 146.94C218.582 146.817 219.272 146.58 219.899 146.242C221.855 145.196 223.212 143.12 223.636 140.584L224.309 140.745C226.693 139.757 228.817 138.335 230.543 136.57C230.885 136.211 231.205 135.836 231.502 135.446C234.548 131.46 234.573 126.677 232.599 122.641Z" fill="#111111"/>
<path opacity="0.2" d="M128.504 263.14L133.796 244.985L138.469 260.651L128.504 263.14Z" fill="black"/>
<path d="M269.334 251.311C267.44 274.497 269.402 284.706 258.951 303.823C249.442 307.96 239.537 311.336 229.354 313.91C228.295 314.176 227.234 314.434 226.171 314.685C212.775 317.836 199.015 319.599 185.163 319.939C184.441 319.956 183.731 319.967 183.046 319.978C182.803 319.983 182.566 319.989 182.329 319.989C181.551 319.994 180.779 320 180 320C165.403 320.01 150.859 318.442 136.688 315.333C135.268 315.023 133.854 314.696 132.446 314.353C125.032 312.554 117.756 310.329 110.666 307.693C106.929 306.309 103.258 304.816 99.654 303.214C98.8381 302.848 98.0222 302.483 97.2187 302.107C93.0893 295.651 90.7412 287.801 90.6914 278.367C93.5502 262.112 263.018 237.293 269.334 251.311Z" fill="#474747"/>
<path opacity="0.2" d="M269.329 255.281C269.425 253.846 269.533 252.363 269.66 250.819C263.344 236.801 93.8762 261.621 91.0173 277.875C91.0252 279.366 91.0969 280.812 91.2174 282.224C98.1406 266.18 259.137 242.591 269.329 255.281Z" fill="black"/>
<path d="M101.582 189.426C101.623 188.925 101.543 188.421 101.347 187.948C101.151 187.476 100.843 187.047 100.444 186.69C100.046 186.332 99.5659 186.055 99.0366 185.876C98.5074 185.697 97.9412 185.621 97.3761 185.653C97.1656 185.66 96.9561 185.684 96.7501 185.723L71.9848 190.696C71.4314 190.815 70.9123 191.036 70.4608 191.345C70.0093 191.653 69.6355 192.042 69.3635 192.487C69.0003 192.499 68.6396 192.546 68.2876 192.626C67.5169 192.781 66.7882 193.07 66.143 193.475C65.4979 193.881 64.9489 194.396 64.5275 194.99C64.1061 195.584 63.8204 196.246 63.6869 196.939C63.5533 197.631 63.5745 198.34 63.7492 199.025C63.9239 199.71 64.2487 200.358 64.705 200.931C65.1613 201.505 65.7402 201.993 66.4087 202.367C67.7587 203.124 69.3915 203.372 70.948 203.059C71.8339 202.876 72.6627 202.52 73.3736 202.016L81.7657 223.021C82.1849 223.679 82.8326 224.199 83.6118 224.503C84.391 224.807 85.26 224.879 86.0889 224.707L102.188 221.473C103.011 221.302 103.751 220.903 104.303 220.335C104.855 219.766 105.19 219.057 105.26 218.309L101.582 189.426ZM70.5763 201.564C69.4647 201.786 68.2991 201.608 67.3349 201.069C66.3708 200.529 65.6868 199.671 65.4331 198.683C65.1793 197.696 65.3764 196.659 65.9812 195.801C66.586 194.942 67.5491 194.332 68.6593 194.104C68.7375 194.087 68.8158 194.104 68.894 194.087C68.8881 194.72 69.0703 195.344 69.4222 195.895L72.4933 200.659C71.9587 201.11 71.2959 201.423 70.5763 201.564Z" fill="#E8E8E8"/>
<path d="M97.376 185.653C97.6107 188.435 92.2508 191.635 85.0716 192.904C78.4791 194.104 72.5715 193.269 70.9087 191.078C71.2429 190.902 71.6059 190.773 71.9847 190.696L96.75 185.723C96.956 185.684 97.1655 185.66 97.376 185.653V185.653Z" fill="#C4C4C4"/>
<path d="M80.2486 256.28L94.1588 250.097L82.5669 222.277L79.512 208.247C79.1151 206.424 78.1869 204.726 76.8203 203.322C75.4537 201.918 73.6965 200.857 71.7242 200.246C69.752 199.634 67.6338 199.494 65.5814 199.838C63.5289 200.183 61.6141 201 60.0282 202.208V202.208C57.6782 203.999 56.2026 206.531 55.913 209.27C55.6234 212.009 56.5423 214.741 58.4758 216.89L69.8159 229.49L80.2486 256.28Z" fill="#FFCFBF"/>
<path d="M94.1588 244.946L75.6118 253.189L89.687 292.391C90.6978 295.206 92.5096 297.741 94.947 299.751C97.3844 301.76 100.365 303.176 103.599 303.86V303.86C107.586 304.704 111.772 304.397 115.551 302.984C119.329 301.571 122.502 299.125 124.611 296L161.935 239.134C164.58 235.216 165.396 230.533 164.21 226.087C163.023 221.641 159.928 217.783 155.585 215.338V215.338C153.249 214.023 150.628 213.16 147.892 212.805C145.156 212.45 142.366 212.611 139.705 213.278C137.044 213.944 134.57 215.102 132.445 216.674C130.321 218.247 128.592 220.2 127.373 222.405L104.592 265.553L94.1588 244.946Z" fill="#F4A6B3"/>
<path d="M88.4222 209.518C88.3877 209.518 88.3535 209.513 88.3209 209.503L84.2715 208.263C84.2226 208.249 84.1786 208.223 84.1436 208.189C84.1085 208.155 84.0835 208.114 84.0708 208.07C84.0581 208.025 84.0581 207.979 84.0708 207.934C84.0835 207.89 84.1085 207.848 84.1435 207.815L87.1552 204.9C87.1828 204.873 87.2161 204.851 87.2532 204.836C87.2903 204.82 87.3305 204.811 87.3714 204.81C87.4124 204.808 87.4533 204.814 87.4918 204.826C87.5303 204.839 87.5657 204.858 87.5959 204.882C87.6261 204.907 87.6505 204.937 87.6678 204.97C87.685 205.003 87.6948 205.039 87.6964 205.075C87.6981 205.111 87.6917 205.148 87.6775 205.182C87.6633 205.216 87.6417 205.247 87.6138 205.274L84.9239 207.877L88.5234 208.979C88.5931 209.001 88.652 209.043 88.6897 209.099C88.7274 209.156 88.7415 209.222 88.7293 209.287C88.7172 209.351 88.6796 209.41 88.6234 209.452C88.5672 209.495 88.4958 209.518 88.4222 209.518V209.518Z" fill="#F4A6B3"/>
<path d="M93.9727 208.508C93.9107 208.508 93.8501 208.491 93.7986 208.461C93.7472 208.43 93.7073 208.386 93.684 208.335C93.6608 208.284 93.6552 208.228 93.6681 208.174C93.6809 208.12 93.7116 208.07 93.7562 208.032L96.4933 205.68L92.8165 204.333C92.7786 204.319 92.7442 204.299 92.7151 204.273C92.6861 204.247 92.6631 204.217 92.6473 204.183C92.6315 204.15 92.6234 204.114 92.6233 204.078C92.6232 204.041 92.6312 204.005 92.6468 203.971C92.6624 203.938 92.6853 203.907 92.7142 203.882C92.7431 203.856 92.7774 203.835 92.8152 203.821C92.853 203.807 92.8935 203.8 92.9344 203.8C92.9754 203.8 93.0159 203.807 93.0537 203.821L97.1702 205.329C97.2181 205.347 97.2602 205.375 97.2929 205.41C97.3256 205.446 97.3479 205.488 97.3576 205.533C97.3673 205.578 97.3642 205.625 97.3486 205.669C97.333 205.712 97.3054 205.752 97.2682 205.784L94.1893 208.43C94.1312 208.48 94.0535 208.508 93.9727 208.508V208.508Z" fill="#F4A6B3"/>
<path d="M89.2723 211.211C89.2412 211.211 89.2103 211.207 89.1807 211.199C89.1416 211.188 89.1052 211.171 89.0737 211.147C89.0421 211.124 89.016 211.096 88.9969 211.064C88.9777 211.032 88.9659 210.996 88.9621 210.96C88.9582 210.924 88.9624 210.887 88.9745 210.853L91.8487 202.548C91.8733 202.478 91.9281 202.42 92.001 202.386C92.074 202.351 92.1592 202.344 92.238 202.366C92.3168 202.388 92.3827 202.436 92.4214 202.501C92.46 202.566 92.4682 202.641 92.4442 202.711L89.57 211.016C89.5503 211.072 89.5108 211.122 89.4572 211.157C89.4036 211.192 89.3388 211.211 89.2723 211.211V211.211Z" fill="#F4A6B3"/>
</g>
<defs>
<linearGradient id="paint0_linear_250_2" x1="97.4314" y1="136.568" x2="257.694" y2="136.569" gradientUnits="userSpaceOnUse">
<stop stop-color="#D3758C"/>
<stop offset="1" stop-color="#F4A6B3"/>
</linearGradient>
<linearGradient id="paint1_linear_250_2" x1="105.169" y1="132.574" x2="112.581" y2="132.574" gradientUnits="userSpaceOnUse">
<stop stop-color="#D3758C"/>
<stop offset="1" stop-color="#F4A6B3"/>
</linearGradient>
<linearGradient id="paint2_linear_250_2" x1="117.972" y1="132.574" x2="125.384" y2="132.574" gradientUnits="userSpaceOnUse">
<stop stop-color="#D3758C"/>
<stop offset="1" stop-color="#F4A6B3"/>
</linearGradient>
<linearGradient id="paint3_linear_250_2" x1="130.775" y1="132.574" x2="138.187" y2="132.574" gradientUnits="userSpaceOnUse">
<stop stop-color="#D3758C"/>
<stop offset="1" stop-color="#F4A6B3"/>
</linearGradient>
<linearGradient id="paint4_linear_250_2" x1="239.6" y1="127.895" x2="250.044" y2="127.895" gradientUnits="userSpaceOnUse">
<stop stop-color="#D3758C"/>
<stop offset="1" stop-color="#F4A6B3"/>
</linearGradient>
<linearGradient id="paint5_linear_250_2" x1="239.599" y1="130.192" x2="250.045" y2="130.192" gradientUnits="userSpaceOnUse">
<stop stop-color="#D3758C"/>
<stop offset="1" stop-color="#F4A6B3"/>
</linearGradient>
<linearGradient id="paint6_linear_250_2" x1="239.6" y1="132.49" x2="250.044" y2="132.49" gradientUnits="userSpaceOnUse">
<stop stop-color="#D3758C"/>
<stop offset="1" stop-color="#F4A6B3"/>
</linearGradient>
<clipPath id="clip0_250_2">
<rect width="360" height="320" fill="white"/>
</clipPath>
</defs>
</svg>
