<svg width="102" height="30" viewBox="0 0 102 30" fill="none" xmlns="http://www.w3.org/2000/svg">
<path d="M23.904 3.72794L15.156 20.6479V28.9999H9.00001V20.6479L0.252014 3.72794H7.23601L12.132 14.3119L16.992 3.72794H23.904Z" fill="black"/>
<path d="M46.0404 8.91194V28.9999H39.8844V26.2639C39.2604 27.1519 38.4084 27.8719 37.3284 28.4239C36.2724 28.9519 35.0964 29.2159 33.8004 29.2159C32.2644 29.2159 30.9084 28.8799 29.7324 28.2079C28.5564 27.5119 27.6444 26.5159 26.9964 25.2199C26.3484 23.9239 26.0244 22.3999 26.0244 20.6479V8.91194H32.1444V19.8199C32.1444 21.1639 32.4924 22.2079 33.1884 22.9519C33.8844 23.6959 34.8204 24.0679 35.9964 24.0679C37.1964 24.0679 38.1444 23.6959 38.8404 22.9519C39.5364 22.2079 39.8844 21.1639 39.8844 19.8199V8.91194H46.0404Z" fill="black"/>
<path d="M62.5582 28.9999L56.4382 20.5759V28.9999H50.2822V2.35994H56.4382V17.0839L62.5222 8.91194H70.1182L61.7662 18.9919L70.1902 28.9999H62.5582Z" fill="black"/>
<path d="M75.4521 6.82394C74.3721 6.82394 73.4841 6.51194 72.7881 5.88794C72.1161 5.23994 71.7801 4.44794 71.7801 3.51194C71.7801 2.55194 72.1161 1.75994 72.7881 1.13594C73.4841 0.487941 74.3721 0.16394 75.4521 0.16394C76.5081 0.16394 77.3721 0.487941 78.0441 1.13594C78.7401 1.75994 79.0881 2.55194 79.0881 3.51194C79.0881 4.44794 78.7401 5.23994 78.0441 5.88794C77.3721 6.51194 76.5081 6.82394 75.4521 6.82394ZM78.5121 8.91194V28.9999H72.3561V8.91194H78.5121Z" fill="black"/>
<path d="M101.729 18.6319C101.729 19.2079 101.693 19.8079 101.621 20.4319H87.6893C87.7853 21.6799 88.1813 22.6399 88.8773 23.3119C89.5973 23.9599 90.4733 24.2839 91.5053 24.2839C93.0413 24.2839 94.1093 23.6359 94.7093 22.3399H101.261C100.925 23.6599 100.313 24.8479 99.4253 25.9039C98.5613 26.9599 97.4693 27.7879 96.1493 28.3879C94.8293 28.9879 93.3533 29.2879 91.7213 29.2879C89.7533 29.2879 88.0013 28.8679 86.4653 28.0279C84.9293 27.1879 83.7293 25.9879 82.8653 24.4279C82.0013 22.8679 81.5693 21.0439 81.5693 18.9559C81.5693 16.8679 81.9893 15.0439 82.8293 13.4839C83.6933 11.9239 84.8933 10.7239 86.4293 9.88394C87.9653 9.04394 89.7293 8.62394 91.7213 8.62394C93.6653 8.62394 95.3933 9.03194 96.9053 9.84794C98.4173 10.6639 99.5933 11.8279 100.433 13.3399C101.297 14.8519 101.729 16.6159 101.729 18.6319ZM95.4293 17.0119C95.4293 15.9559 95.0693 15.1159 94.3493 14.4919C93.6293 13.8679 92.7293 13.5559 91.6493 13.5559C90.6173 13.5559 89.7413 13.8559 89.0213 14.4559C88.3253 15.0559 87.8933 15.9079 87.7253 17.0119H95.4293Z" fill="black"/>
</svg>
